<?xml version="1.0" standalone="no"?>
<!DOCTYPE svg PUBLIC "-//W3C//DTD SVG 20010904//EN"
 "http://www.w3.org/TR/2001/REC-SVG-20010904/DTD/svg10.dtd">
<svg version="1.0" xmlns="http://www.w3.org/2000/svg"
 width="431.000000pt" height="431.000000pt" viewBox="0 0 431.000000 431.000000"
 preserveAspectRatio="xMidYMid meet">
<metadata>
Created by potrace 1.11, written by Peter Selinger 2001-2013
</metadata>
<g transform="translate(0.000000,431.000000) scale(0.100000,-0.100000)"
fill="#000000" stroke="none">
<path d="M2276 3472 c-3 -5 1 -9 9 -9 8 0 12 4 9 9 -3 4 -7 8 -9 8 -2 0 -6 -4
-9 -8z"/>
<path d="M2258 3443 c6 -2 9 -10 6 -15 -4 -7 -2 -8 5 -4 13 9 5 26 -12 25 -9
0 -8 -2 1 -6z"/>
<path d="M2294 3434 c4 -10 4 -15 0 -11 -4 4 -16 -1 -27 -10 -11 -10 -17 -13
-14 -6 4 6 3 15 -3 18 -6 4 -10 3 -9 -2 3 -18 -2 -33 -11 -33 -5 0 -7 7 -4 15
4 8 1 15 -5 15 -6 0 -10 -3 -10 -7 3 -21 -2 -34 -11 -28 -6 4 -9 3 -8 -2 5
-16 -23 -54 -35 -46 -7 4 -7 0 2 -10 15 -19 26 -23 15 -5 -5 7 -3 8 6 3 8 -5
11 -4 7 1 -3 6 -2 16 2 23 6 9 11 10 15 2 4 -6 2 -11 -4 -11 -6 0 -9 -4 -6 -9
8 -12 -18 -32 -35 -28 -8 2 -11 2 -6 0 4 -3 4 -10 1 -15 -4 -6 -2 -8 4 -4 15
9 9 -15 -12 -46 -10 -15 -14 -33 -10 -40 4 -7 -2 -5 -13 5 -16 14 -23 15 -29
6 -4 -7 -3 -10 3 -6 6 4 14 0 17 -9 5 -12 2 -15 -11 -10 -10 4 -14 4 -10 0 4
-4 1 -14 -6 -23 -11 -14 -10 -15 8 -1 18 14 19 13 8 -1 -7 -9 -10 -19 -6 -23
4 -4 0 -4 -10 0 -12 4 -17 1 -17 -11 0 -9 4 -14 9 -10 5 3 12 1 16 -4 3 -6 -3
-8 -14 -6 -11 2 -27 -5 -37 -16 -9 -10 -14 -19 -10 -19 4 0 -2 -12 -13 -26
-15 -19 -18 -31 -11 -49 10 -27 4 -36 -18 -28 -14 5 -13 2 3 -17 11 -13 14
-20 8 -16 -12 6 -18 -5 -14 -26 0 -4 -6 -5 -14 -2 -13 5 -13 8 0 21 19 18 20
29 2 14 -8 -6 -17 -7 -21 -3 -4 4 -6 0 -4 -8 2 -9 -3 -14 -12 -12 -12 3 -13 1
-2 -9 15 -16 17 -73 2 -64 -6 4 -8 11 -5 16 3 5 -1 6 -10 2 -9 -3 -13 -9 -8
-12 16 -11 23 -41 9 -35 -8 3 -17 0 -22 -7 -4 -7 -3 -10 4 -5 6 3 14 1 18 -5
4 -8 3 -9 -4 -5 -8 4 -12 -1 -13 -13 -2 -33 -4 -39 -11 -47 -5 -4 -8 -16 -8
-26 0 -12 -4 -16 -12 -12 -7 5 -8 3 -3 -5 5 -9 10 -10 18 -2 7 7 14 5 23 -7
16 -21 17 -32 4 -32 -6 0 -9 3 -8 8 2 4 -1 9 -6 12 -5 3 -10 -2 -11 -11 -2
-13 5 -16 35 -14 29 2 37 -1 36 -14 0 -9 -5 -19 -11 -23 -5 -4 4 -6 20 -4 29
4 31 2 30 -30 -1 -27 1 -31 12 -23 10 9 13 8 13 -4 0 -8 7 -17 15 -21 13 -5
13 -2 -1 20 -9 13 -14 27 -11 31 4 3 11 -6 17 -21 5 -15 14 -25 19 -22 4 3 7
-8 5 -25 -3 -27 -1 -30 17 -24 16 6 20 4 14 -6 -5 -8 1 -6 12 4 23 20 38 10
22 -13 -7 -13 -9 -13 -9 -1 0 8 -2 12 -5 9 -3 -3 -3 -12 1 -21 5 -15 9 -14 26
6 11 12 17 16 13 10 -4 -8 0 -13 10 -13 12 0 15 5 11 18 -5 15 -4 14 9 -2 14
-18 14 -17 12 10 -1 20 2 28 12 26 19 -4 41 17 34 34 -3 7 -10 11 -16 7 -6 -3
-7 -1 -3 6 4 6 11 9 16 6 4 -3 10 -2 13 2 2 5 2 3 1 -4 -2 -7 3 -10 11 -7 8 3
11 13 8 22 -4 14 -3 14 5 3 6 -8 8 -20 5 -28 -3 -7 0 -13 6 -13 6 0 11 4 11
10 0 5 9 2 19 -7 15 -13 18 -21 10 -35 -7 -13 -7 -23 0 -32 6 -7 8 -16 5 -19
-4 -3 6 -4 22 -1 23 4 27 3 17 -7 -18 -18 -16 -34 2 -19 13 11 14 10 10 -3 -4
-8 -1 -18 5 -22 8 -5 8 -11 -1 -21 -10 -12 -9 -13 5 -8 19 7 20 16 4 33 -11
10 -9 11 5 5 14 -5 17 -15 14 -49 -4 -43 -4 -43 47 -47 26 -2 26 -18 0 -18 -8
0 -14 -4 -14 -10 0 -5 8 -6 17 -3 12 5 15 2 10 -10 -4 -11 -2 -14 9 -10 11 4
12 9 3 19 -19 23 -2 16 24 -10 18 -18 21 -26 12 -30 -17 -6 -12 -41 6 -41 8 0
13 -8 13 -18 -1 -9 2 -15 6 -12 10 6 33 -22 26 -33 -3 -5 1 -9 9 -9 10 0 11 5
4 19 -6 12 -6 18 1 18 5 0 10 -7 10 -16 0 -8 5 -12 11 -8 8 5 8 1 0 -14 -14
-27 -14 -29 4 -35 8 -4 17 -1 21 5 5 7 2 8 -6 3 -9 -6 -11 -4 -5 5 6 9 4 11
-6 5 -12 -8 -12 -6 0 8 7 9 16 17 19 17 3 0 2 -3 -1 -7 -4 -3 1 -15 10 -26 10
-12 12 -17 4 -12 -9 5 -12 3 -9 -6 3 -8 13 -14 23 -14 10 0 19 -6 21 -13 1 -7
0 -8 -3 -2 -2 5 -9 10 -14 10 -6 0 -7 -5 -3 -11 3 -6 -6 -3 -22 6 -17 10 -22
11 -12 3 10 -8 14 -19 10 -23 -4 -5 -2 -5 4 -2 6 3 22 0 37 -8 14 -7 27 -11
30 -9 8 8 4 -32 -5 -43 -7 -8 -3 -10 11 -6 12 3 18 10 14 17 -4 6 1 5 10 -3
11 -8 15 -21 12 -32 -4 -11 -2 -19 4 -19 6 0 11 5 11 12 0 6 2 9 5 6 12 -11
-7 -37 -23 -31 -14 4 -15 3 -2 -5 8 -6 19 -7 25 -2 6 5 18 2 29 -6 14 -10 16
-14 5 -14 -12 0 -12 -2 1 -9 8 -6 18 -7 24 -4 5 3 6 1 2 -5 -5 -9 -13 -9 -26
-2 -24 13 -30 13 -30 0 0 -5 3 -10 8 -9 21 3 52 -16 52 -32 0 -12 6 -17 18
-14 18 3 22 -4 23 -48 0 -14 3 -16 13 -8 11 10 14 -3 7 -39 -1 -3 -6 2 -12 10
-9 13 -10 13 -6 0 5 -16 10 -16 42 -4 18 7 19 6 6 -9 -8 -10 -10 -21 -6 -25 4
-4 10 -1 12 6 3 6 10 12 16 12 7 -1 1 -10 -13 -22 -14 -12 -18 -19 -10 -16 54
21 56 21 33 4 -13 -10 -23 -22 -23 -28 0 -6 3 -8 6 -5 4 4 15 -2 24 -13 15
-18 19 -18 24 -5 4 11 2 14 -7 9 -6 -4 -8 -3 -4 1 13 14 34 14 34 -1 0 -7 -3
-11 -6 -9 -4 2 -12 -8 -18 -22 -11 -24 -11 -24 5 -10 15 13 19 13 30 1 7 -8
18 -11 24 -8 6 4 8 3 4 -4 -3 -6 -2 -13 4 -17 6 -4 7 -11 4 -17 -5 -8 -1 -9
12 -5 18 7 18 6 2 -7 -21 -16 -24 -30 -5 -23 8 3 18 2 24 -1 15 -10 45 -71 39
-81 -3 -5 1 -14 9 -21 7 -6 11 -18 8 -26 -3 -7 2 -17 11 -20 15 -6 15 -8 -1
-20 -28 -21 -45 -17 -38 9 7 22 7 22 -9 2 -9 -12 -15 -15 -16 -7 0 8 -5 10
-12 6 -10 -6 -10 -4 0 8 11 14 10 16 -5 13 -20 -3 -65 33 -57 46 3 5 2 9 -3 9
-4 0 -21 11 -37 25 -16 13 -34 22 -40 18 -6 -4 -4 2 4 12 14 17 14 18 -10 5
-23 -12 -24 -12 -11 3 9 12 10 17 2 17 -7 0 -9 5 -5 13 5 7 0 6 -11 -3 -17
-14 -18 -13 -12 4 7 17 6 17 -10 5 -15 -12 -16 -12 -10 3 5 14 -19 48 -30 41
-9 -7 -23 -2 -18 7 3 6 -1 10 -10 10 -11 0 -15 5 -11 16 3 8 2 12 -4 9 -6 -3
-10 -1 -10 4 0 6 -3 10 -7 10 -5 -1 -14 -1 -22 0 -11 1 -11 4 0 18 13 15 12
15 -8 4 -21 -11 -27 -8 -24 12 0 4 -5 7 -13 7 -7 0 -20 8 -27 17 -12 15 -12
16 1 8 24 -15 39 -14 33 2 -3 8 -9 11 -12 6 -3 -5 -16 -4 -28 2 -13 7 -20 15
-16 18 3 4 -4 7 -16 7 -12 0 -19 4 -16 10 6 9 -8 14 -27 11 -5 0 -8 3 -8 7 0
5 -7 17 -16 28 -8 10 -13 13 -9 7 4 -9 1 -11 -10 -7 -12 5 -13 9 -4 20 7 8 9
17 5 21 -3 3 -6 1 -6 -5 0 -7 -5 -12 -11 -12 -5 0 -7 5 -4 10 6 9 -8 15 -29
11 -5 -1 -6 7 -3 18 3 14 1 18 -9 14 -8 -3 -11 -10 -7 -16 3 -6 1 -7 -6 -3 -6
4 -9 11 -6 16 3 5 -4 12 -15 15 -18 6 -19 9 -8 22 12 15 10 15 -12 3 -21 -10
-23 -10 -12 1 15 16 16 29 1 29 -5 0 -7 -4 -4 -10 3 -5 1 -10 -4 -10 -11 0
-15 15 -12 34 1 5 -5 4 -13 -4 -14 -11 -16 -9 -16 10 0 19 -2 21 -16 10 -12
-11 -15 -11 -12 1 2 8 -3 13 -10 11 -10 -2 -10 2 -1 20 11 21 11 22 -4 9 -12
-9 -17 -10 -17 -2 0 7 -4 9 -10 6 -5 -3 -10 1 -10 9 0 9 -4 16 -9 16 -5 0 -13
9 -16 20 -3 11 -11 20 -18 20 -8 0 -8 -3 1 -12 7 -7 12 -15 12 -20 0 -4 -11 4
-25 18 -27 27 -34 44 -11 25 11 -9 16 -9 22 0 4 7 3 9 -3 6 -6 -4 -20 5 -33
18 -19 20 -26 23 -39 12 -12 -9 -13 -9 -7 1 4 7 2 12 -5 12 -9 0 -9 3 0 14 9
11 6 13 -20 10 -31 -4 -32 -3 -15 15 18 20 5 24 -22 7 -7 -4 -11 -4 -10 1 4
10 -39 53 -53 53 -6 0 -8 10 -5 23 3 12 3 16 0 10 -3 -7 -10 -13 -15 -13 -6 0
-7 5 -4 10 3 6 1 10 -5 10 -15 0 -40 25 -40 40 0 8 -8 10 -21 7 -12 -3 -18 -3
-15 0 6 7 -35 39 -45 36 -3 -1 -6 5 -6 13 0 11 6 9 22 -6 17 -16 22 -17 22 -6
0 8 -4 13 -8 10 -4 -2 -11 2 -16 9 -4 7 -16 17 -26 20 -11 4 -15 12 -11 18 5
8 3 9 -5 4 -9 -5 -10 -10 -2 -18 6 -6 11 -16 11 -21 0 -6 -7 -1 -15 11 -9 12
-15 26 -14 30 1 4 1 15 0 23 -1 13 -2 13 -12 0 -8 -11 -12 -12 -16 -2 -2 6 -9
12 -15 12 -6 0 -17 8 -25 18 -10 12 -16 14 -19 4 -3 -6 -11 -9 -17 -5 -7 4 -6
-1 2 -10 12 -15 12 -17 -4 -11 -13 5 -16 4 -11 -4 4 -7 3 -12 -3 -12 -6 0 -8
-8 -5 -17 5 -14 4 -15 -4 -4 -6 8 -8 20 -5 28 3 7 0 13 -7 13 -6 0 -9 -4 -6
-9 3 -4 -3 -16 -13 -25 -20 -18 -18 -61 3 -49 6 3 2 -3 -8 -15 -23 -26 -23
-26 -23 -7 0 8 5 11 10 8 6 -3 7 -1 3 6 -4 6 -12 9 -17 5 -6 -3 -8 -9 -5 -12
3 -3 1 -11 -5 -18 -7 -8 -6 -14 2 -20 8 -4 9 -3 5 4 -5 8 -1 10 9 5 13 -4 14
-8 4 -13 -7 -5 -18 -6 -26 -3 -7 3 -13 -2 -13 -12 0 -10 -5 -13 -12 -9 -7 4
-8 3 -4 -5 6 -9 11 -9 22 0 8 6 17 9 21 5 3 -3 1 -6 -5 -6 -7 0 -12 -7 -12
-15 0 -13 -4 -14 -22 -5 l-23 11 22 -19 c19 -17 20 -21 7 -26 -8 -3 -13 -2
-10 3 3 5 0 11 -7 14 -9 3 -11 -6 -9 -34 4 -34 1 -40 -23 -49 -26 -10 -27 -11
-11 -29 11 -12 13 -21 7 -25 -5 -4 -15 2 -21 11 -10 16 -11 16 -5 -2 4 -11 9
-29 12 -40 4 -16 3 -17 -6 -5 -7 9 -11 10 -11 3 0 -17 23 -29 28 -15 5 15 23
16 19 1 -1 -6 6 -13 16 -14 11 -2 22 -6 25 -9 8 -9 -30 -2 -45 7 -8 5 -13 4
-13 -2 0 -6 4 -11 9 -11 6 0 8 -8 6 -18 -2 -11 3 -19 11 -19 10 0 11 4 2 14
-9 12 -6 13 18 8 16 -4 34 -7 41 -7 7 -1 10 -5 7 -10 -3 -5 7 -6 23 -3 23 4
24 4 8 -4 -15 -7 -16 -10 -5 -11 8 -2 19 -2 23 -1 5 1 6 -2 3 -7 -2 -4 -1 -14
4 -22 5 -9 4 -20 -3 -30 -11 -13 -10 -13 6 -1 14 11 17 11 17 0 0 -9 3 -10 8
-4 4 6 15 11 25 11 14 2 16 -3 11 -20 -6 -20 -5 -20 8 -2 12 15 19 16 35 8 11
-6 23 -8 27 -5 3 3 6 1 6 -6 0 -14 -31 -11 -42 4 -4 5 -10 6 -15 1 -4 -4 0
-12 10 -17 9 -6 15 -14 12 -19 -3 -5 -1 -12 5 -15 6 -4 9 -1 8 6 -2 6 3 14 10
16 8 3 10 -2 6 -14 -3 -10 2 -7 10 7 8 14 15 19 16 11 0 -8 7 -11 18 -9 12 3
18 -1 18 -12 0 -16 -3 -16 -22 -3 -20 13 -22 12 -20 -1 1 -9 8 -22 16 -29 12
-10 12 -9 1 6 -7 9 -10 17 -6 17 5 0 17 -8 28 -17 11 -10 17 -12 13 -5 -4 6
-2 12 3 12 6 0 11 -6 11 -14 0 -8 7 -17 16 -20 8 -3 13 -2 10 3 -3 5 1 11 9
15 8 3 17 0 21 -6 4 -7 3 -8 -4 -4 -16 10 -15 -5 2 -27 8 -10 17 -14 20 -8 3
5 1 12 -4 14 -6 3 -5 4 2 3 7 -2 12 -14 11 -27 -1 -13 1 -18 4 -10 4 10 9 8
19 -10 13 -24 13 -24 11 -1 -1 12 -4 22 -7 22 -4 0 -7 7 -7 16 0 15 2 14 13
-1 8 -10 11 -22 8 -26 -5 -8 19 -14 41 -9 6 1 4 -4 -2 -11 -7 -7 -13 -17 -13
-23 0 -5 9 1 20 14 11 13 20 19 20 14 0 -6 -5 -15 -11 -21 -8 -8 -8 -13 0 -17
19 -12 52 -15 46 -5 -4 5 -11 6 -17 3 -7 -4 -8 -2 -4 4 5 8 1 10 -11 6 -15 -5
-16 -4 -3 5 12 9 20 5 37 -14 22 -25 40 -34 28 -15 -3 6 1 7 9 4 9 -3 16 -10
16 -16 0 -5 4 -6 10 -3 6 3 7 -1 4 -9 -4 -10 -1 -16 10 -16 10 0 13 6 10 17
-5 15 -4 16 5 3 7 -11 6 -21 -4 -36 -11 -17 -11 -21 0 -21 8 0 12 3 10 6 -2 4
3 15 11 26 8 10 14 13 14 6 0 -7 5 -9 13 -5 6 4 9 4 5 -1 -5 -5 1 -15 13 -23
11 -8 18 -20 16 -26 -3 -7 -1 -19 5 -27 8 -11 9 -11 5 3 -6 18 18 32 35 22 7
-5 4 -12 -7 -21 -15 -10 -16 -15 -6 -26 10 -10 12 -9 9 2 -2 8 8 17 22 22 14
4 19 7 11 8 -8 1 -12 4 -8 7 3 3 14 1 24 -5 12 -7 13 -10 4 -11 -11 0 -11 -3
-1 -15 7 -9 21 -13 31 -10 14 5 19 1 19 -12 0 -11 -5 -24 -10 -29 -7 -7 -6
-11 4 -11 8 0 13 4 10 9 -3 4 2 8 10 8 9 0 16 5 16 12 0 6 3 8 6 5 4 -4 1 -14
-7 -24 -9 -11 -10 -14 -1 -9 7 4 12 2 12 -4 0 -6 5 -8 10 -5 6 4 8 10 5 15 -3
4 2 7 11 6 9 -1 21 -11 26 -21 7 -12 7 -16 0 -11 -5 3 -12 -1 -16 -9 -3 -8 0
-17 7 -21 7 -4 9 -4 5 1 -8 9 42 39 50 30 3 -3 -1 -5 -9 -5 -9 -1 -6 -7 9 -19
12 -11 22 -26 22 -35 0 -18 15 -22 25 -6 7 11 35 2 35 -12 0 -6 -8 -4 -17 3
-9 8 -5 -2 10 -23 20 -26 25 -38 16 -44 -8 -4 -9 -3 -5 4 4 7 1 12 -9 12 -10
0 -13 5 -9 13 5 7 0 6 -11 -3 -16 -14 -17 -13 -11 8 5 14 3 22 -4 22 -6 0 -9
-4 -5 -9 3 -5 1 -12 -5 -16 -5 -3 -10 1 -10 9 0 9 -5 16 -11 16 -5 0 -7 -4 -4
-10 3 -6 -1 -7 -9 -4 -9 3 -16 10 -16 16 0 5 4 7 9 3 5 -3 12 -1 15 4 4 5 -2
8 -11 7 -10 -2 -21 4 -25 13 -6 13 -7 12 -5 -4 1 -11 -3 -20 -8 -20 -6 0 -9 4
-7 9 2 5 -4 6 -12 3 -9 -4 -13 -1 -10 6 2 7 -3 13 -13 13 -32 1 -46 8 -70 34
-13 14 -23 21 -22 15 4 -28 -3 -38 -12 -17 -6 15 -15 22 -26 20 -10 -3 -30 2
-45 9 -16 7 -28 10 -28 7 0 -4 -8 0 -18 9 -10 10 -22 14 -27 10 -4 -5 -5 -2
-1 5 4 7 1 12 -8 12 -9 0 -16 5 -16 11 0 5 -4 8 -9 5 -17 -11 -40 5 -36 26 3
16 2 18 -10 8 -8 -6 -20 -8 -26 -4 -8 5 -9 3 -5 -5 5 -7 15 -10 25 -6 12 5 13
4 4 -6 -9 -9 -16 -9 -26 -1 -8 7 -16 9 -19 6 -3 -3 -15 6 -25 20 -15 19 -23
22 -32 13 -15 -15 -14 5 2 22 9 11 9 12 0 7 -7 -4 -23 -2 -35 4 -22 11 -22 10
-4 -4 11 -9 18 -18 15 -20 -6 -7 -35 17 -42 34 -4 11 -6 10 -7 -5 -1 -16 -4
-14 -16 10 -8 17 -13 23 -10 15 2 -10 -4 -15 -19 -15 -16 0 -20 3 -14 11 6 8
4 14 -6 18 -11 4 -14 2 -10 -7 4 -6 0 -4 -8 5 -8 10 -23 19 -33 21 -10 1 -25
7 -33 11 -10 6 -12 5 -7 -2 4 -7 2 -12 -3 -12 -6 0 -11 5 -11 11 0 5 -5 7 -12
3 -7 -5 -8 -3 -2 7 12 20 14 40 3 33 -5 -3 -7 -9 -4 -14 9 -14 -34 -18 -46 -4
-6 8 -15 11 -20 9 -5 -3 -14 3 -21 15 -16 25 -30 26 -21 3 5 -15 3 -14 -10 2
-8 11 -13 23 -11 27 3 5 0 8 -5 8 -6 0 -11 -5 -11 -12 0 -6 -6 -3 -14 7 -13
18 -51 32 -40 14 8 -14 -8 -10 -30 6 -10 8 -23 12 -27 9 -5 -2 -14 4 -21 16
-7 11 -21 20 -31 20 -11 0 -15 -4 -11 -12 4 -7 3 -8 -4 -4 -6 4 -9 12 -6 19 8
22 -39 17 -65 -6 -13 -12 -21 -16 -17 -9 6 9 1 11 -19 8 -15 -3 -30 -8 -34
-12 -3 -3 3 -4 13 -2 10 1 21 -3 24 -11 2 -8 0 -11 -6 -7 -5 3 -13 -1 -16 -9
-5 -13 -10 -14 -28 -5 -22 11 -22 11 -3 -5 11 -8 25 -13 32 -11 21 8 15 -2 -8
-15 -17 -9 -20 -8 -14 3 6 10 5 10 -5 1 -13 -12 -4 -37 11 -28 5 4 9 4 9 1 0
-3 -10 -10 -21 -17 -13 -7 -19 -7 -15 -1 3 6 2 13 -3 16 -11 7 -9 -13 2 -31 6
-9 3 -11 -8 -7 -11 5 -14 2 -8 -12 5 -13 3 -16 -10 -11 -9 3 -19 1 -23 -5 -5
-7 -3 -8 5 -3 9 5 12 0 9 -16 -1 -13 -8 -24 -15 -24 -6 0 -14 -3 -18 -7 -4 -3
5 -5 19 -4 14 2 23 -1 20 -5 -3 -5 -11 -9 -19 -9 -8 0 -12 -9 -10 -25 1 -14
-2 -28 -8 -32 -6 -4 -7 -1 -2 7 5 8 3 11 -6 8 -9 -3 -14 -19 -14 -46 1 -22 -2
-39 -5 -36 -3 3 -5 10 -5 15 0 15 -19 10 -21 -6 -1 -8 2 -12 8 -9 6 4 8 -1 3
-15 -3 -11 -3 -21 2 -22 4 0 19 -2 33 -4 14 -1 31 2 38 7 8 7 16 7 25 -1 10
-8 17 -7 26 2 10 9 12 9 9 -3 -2 -8 3 -14 10 -12 7 1 17 -9 24 -23 l11 -25 19
22 c15 17 18 18 18 5 0 -10 -5 -17 -12 -17 -6 0 -9 -2 -6 -5 11 -12 37 7 30
23 -5 14 -4 15 10 2 11 -11 13 -19 6 -28 -6 -7 -8 -15 -5 -18 8 -8 28 6 23 15
-3 4 16 6 41 5 43 -3 68 -18 57 -36 -3 -4 -1 -8 4 -8 5 0 14 10 20 23 6 12 11
16 11 10 1 -7 13 -13 27 -13 16 0 23 4 18 12 -4 7 -3 8 4 4 6 -4 8 -14 5 -24
-6 -15 -5 -15 10 -3 20 16 23 2 5 -18 -10 -11 -10 -13 0 -7 6 4 12 2 12 -3 0
-6 4 -11 9 -11 6 0 8 9 6 20 -2 11 0 22 4 24 11 7 51 -40 43 -50 -4 -4 -1 -4
6 1 10 5 11 10 3 18 -14 14 -14 27 0 27 5 0 8 -3 5 -8 -2 -4 3 -16 11 -27 15
-20 15 -20 10 1 -4 21 -3 22 32 15 2 -1 -2 -7 -8 -15 -9 -11 -9 -16 0 -22 8
-4 9 -3 5 4 -4 7 -4 12 1 13 4 0 20 3 36 5 16 3 27 0 27 -7 0 -9 4 -9 14 0 10
8 16 9 21 1 6 -9 -1 -14 -17 -11 -5 0 -8 -3 -8 -8 0 -5 11 -8 24 -8 18 0 23 4
19 16 -3 9 6 3 20 -14 14 -16 23 -34 20 -38 -3 -5 4 -4 15 2 12 6 24 17 28 24
5 9 4 9 -7 0 -7 -7 -16 -13 -20 -13 -12 0 -4 29 11 43 11 9 11 8 0 -7 -14 -18
-13 -19 2 -13 23 8 31 -8 18 -35 -11 -22 -11 -22 5 -3 14 17 17 18 26 5 9 -13
10 -13 6 2 -3 9 1 19 9 22 8 3 12 2 9 -4 -3 -5 3 -9 12 -9 42 -1 54 -5 50 -15
-3 -7 8 -12 25 -13 20 0 26 2 17 7 -7 5 -16 7 -19 5 -4 -2 -7 2 -7 10 0 11 5
10 24 -2 13 -9 22 -22 19 -29 -3 -7 0 -16 6 -20 7 -4 8 -3 4 4 -4 7 -1 12 8
12 8 0 17 -6 19 -12 4 -10 6 -10 6 0 1 7 -6 15 -14 18 -8 4 -15 10 -15 15 0 5
10 3 23 -5 12 -8 31 -14 42 -12 11 2 28 -5 38 -16 10 -10 22 -16 28 -13 5 4 9
2 9 -4 0 -5 9 -9 20 -8 11 1 20 5 20 10 0 5 -7 6 -15 3 -9 -3 -18 1 -22 10 -3
10 -8 12 -12 5 -4 -6 -12 -1 -20 12 -13 19 -12 21 1 10 8 -7 18 -10 21 -6 4 3
9 -1 13 -10 5 -13 10 -14 26 -6 16 9 19 8 13 -2 -6 -9 -3 -10 10 -5 15 5 16 4
5 -9 -7 -9 -10 -18 -6 -22 3 -3 6 -1 6 6 0 10 7 9 26 -4 15 -9 24 -12 20 -7
-3 6 0 13 6 16 7 3 4 4 -6 3 -10 -1 -20 4 -22 11 -1 7 0 8 2 3 3 -6 11 -8 18
-5 7 3 19 -2 26 -11 11 -13 15 -13 21 -3 7 10 9 9 9 -4 0 -10 -4 -18 -10 -18
-5 0 -10 -4 -10 -10 0 -18 19 -10 25 11 4 12 10 18 14 13 3 -5 17 -11 31 -13
28 -3 42 -19 35 -39 -3 -7 -1 -11 4 -8 5 3 15 -2 22 -12 12 -15 12 -16 -1 -6
-8 6 -27 10 -42 9 -24 -2 -27 1 -22 20 3 13 1 26 -4 29 -6 4 -8 -3 -5 -16 4
-22 4 -23 -11 -4 -19 23 -21 14 -5 -17 12 -22 11 -22 -9 -4 -15 14 -22 15 -28
6 -5 -8 -3 -10 6 -4 9 5 11 4 6 -4 -8 -13 -26 -3 -55 29 -12 13 -13 13 -8 -2
4 -10 2 -18 -3 -18 -6 0 -10 5 -10 11 0 8 -4 8 -14 0 -10 -8 -16 -9 -21 -1 -3
5 -11 10 -17 10 -7 0 -6 -6 2 -15 7 -8 9 -15 5 -15 -4 0 -13 7 -19 15 -12 16
-100 30 -91 15 4 -6 -6 -5 -22 1 -15 6 -29 10 -30 10 -13 -4 -13 2 -2 17 13
15 12 16 -3 4 -10 -8 -16 -17 -15 -20 1 -4 -2 -7 -8 -7 -5 0 -9 3 -8 7 4 11
-26 17 -33 6 -4 -7 -3 -8 4 -4 7 4 12 3 12 -3 0 -5 -9 -9 -19 -8 -11 0 -17 5
-15 9 8 13 -41 9 -55 -5 -11 -9 -13 -9 -7 0 4 8 1 13 -8 13 -8 0 -17 6 -19 13
-4 9 -6 9 -6 0 -1 -7 -10 -13 -22 -13 -11 0 -17 5 -14 10 3 6 1 10 -4 10 -6 0
-11 -4 -11 -8 0 -16 -30 -9 -31 7 0 14 -1 14 -7 1 -9 -19 -33 -25 -26 -6 3 8
-1 17 -8 22 -7 4 -10 4 -6 0 4 -5 2 -14 -5 -20 -8 -10 -16 -8 -31 9 -12 11
-18 16 -13 11 12 -17 8 -24 -13 -19 -11 3 -18 9 -15 12 2 4 -2 8 -10 8 -8 0
-12 -4 -9 -9 3 -4 -2 -8 -11 -8 -9 0 -13 5 -9 11 5 8 1 8 -14 0 -29 -15 -37
-14 -22 4 11 13 10 14 -4 9 -9 -3 -16 -11 -16 -18 0 -6 -4 -5 -9 4 -6 8 -7 18
-4 24 4 5 1 6 -6 2 -7 -5 -10 -14 -7 -22 3 -8 0 -11 -9 -8 -8 3 -11 13 -8 22
3 11 2 13 -4 6 -14 -18 -43 -25 -43 -10 0 15 -16 16 -37 3 -7 -4 -13 0 -16 10
-4 15 -5 15 -6 -2 -1 -17 -3 -18 -11 -5 -6 10 -10 11 -10 3 0 -7 -5 -13 -11
-13 -5 0 -7 5 -4 10 8 13 -8 13 -22 -1 -8 -8 -13 -7 -18 2 -5 8 -4 10 3 5 8
-5 10 -1 5 10 -4 11 -8 13 -11 6 -2 -7 -9 -9 -15 -5 -7 4 -8 0 -4 -13 7 -18 6
-18 -7 -1 -8 11 -15 14 -18 7 -2 -6 -11 -8 -21 -5 -9 4 -14 12 -10 19 3 6 -4
2 -16 -9 -14 -12 -21 -14 -19 -6 2 8 -6 14 -19 16 -12 1 -20 -2 -17 -6 2 -4
-3 -6 -12 -5 -8 1 -20 9 -25 17 -7 11 -9 11 -9 1 0 -7 -5 -10 -10 -7 -6 4 -7
12 -3 18 4 7 0 6 -10 -2 -9 -7 -17 -11 -17 -7 0 3 -11 2 -23 -3 -15 -6 -29 -5
-38 1 -11 7 -9 8 6 3 16 -5 17 -4 8 6 -10 10 -15 9 -28 -1 -12 -10 -15 -10
-15 0 0 8 -3 10 -6 7 -4 -4 -1 -14 7 -23 13 -16 12 -16 -8 -6 -29 16 -38 15
-24 -2 9 -11 9 -16 0 -22 -8 -4 -9 -3 -5 4 8 14 -29 11 -41 -3 -5 -4 -3 -5 3
-2 7 4 14 1 17 -7 4 -9 -2 -13 -16 -12 -17 1 -22 -5 -23 -23 -1 -13 -12 -33
-25 -43 -13 -11 -17 -16 -9 -12 12 6 13 4 2 -7 -14 -15 -16 -33 -3 -24 5 3 12
1 15 -4 4 -5 -5 -8 -19 -7 -14 2 -29 -2 -34 -8 -10 -11 -2 -14 47 -18 17 -2
15 -15 -4 -22 -8 -3 -12 -2 -9 4 3 6 4 10 1 10 -3 0 -10 -9 -16 -20 -9 -16 -8
-19 6 -13 13 5 15 3 9 -7 -6 -10 -4 -11 6 -4 20 13 70 14 62 1 -3 -6 -1 -7 5
-3 6 4 8 14 5 24 -6 15 -3 14 16 -2 12 -11 32 -21 44 -23 17 -2 19 -1 7 6 -8
5 -18 7 -24 4 -5 -4 -6 -1 -2 6 5 7 11 10 14 7 3 -3 12 0 20 7 13 9 14 9 8 0
-4 -8 -1 -13 9 -13 10 0 14 5 9 13 -5 9 -3 9 7 -1 12 -11 12 -14 -1 -22 -9 -6
-10 -10 -3 -10 7 0 17 9 23 20 11 21 30 27 30 9 0 -5 -5 -7 -12 -3 -6 4 -8 3
-5 -3 3 -5 20 -8 38 -5 20 3 34 0 40 -9 6 -9 9 -10 9 -2 0 7 -8 16 -17 22 -16
9 -15 10 5 8 12 -1 22 -7 22 -13 0 -16 25 -25 38 -12 6 6 12 6 16 -1 13 -20
27 -12 22 12 -3 12 -3 16 0 9 3 -6 11 -9 17 -5 18 11 38 12 31 2 -3 -5 2 -9
11 -9 9 0 14 -4 11 -9 -3 -5 2 -15 11 -22 15 -12 16 -12 8 1 -14 22 -15 39 -3
47 7 3 8 1 4 -5 -4 -7 -3 -12 3 -12 5 0 12 6 14 13 4 9 6 9 6 -1 1 -10 6 -10
21 -2 11 6 20 8 20 4 0 -3 6 -1 14 5 10 9 15 8 19 -3 4 -10 1 -13 -9 -9 -7 3
-14 1 -14 -4 0 -16 34 -11 48 6 8 9 11 11 8 5 -7 -15 27 -24 45 -13 8 4 20 3
28 -4 11 -9 13 -9 8 0 -4 6 -2 15 4 19 8 4 9 3 5 -4 -4 -7 -2 -12 4 -12 6 0 8
-5 4 -12 -6 -10 -5 -10 7 -1 8 6 32 12 54 13 59 3 67 1 59 -12 -4 -7 -3 -8 5
-4 8 6 9 12 2 20 -8 9 -7 13 4 13 7 0 14 -3 13 -6 -2 -18 3 -31 12 -31 5 0 7
6 4 14 -3 8 0 17 7 22 8 4 10 3 5 -4 -4 -7 -2 -12 4 -12 6 0 8 -6 4 -12 -4 -8
-3 -10 2 -5 5 5 9 13 9 19 0 6 8 12 18 14 9 1 15 -2 11 -7 -3 -5 2 -9 11 -9 9
0 14 -4 11 -8 -3 -5 1 -9 8 -9 8 0 12 6 9 14 -4 9 0 11 11 7 9 -3 14 -9 11
-13 -2 -4 2 -8 11 -8 10 0 12 7 8 21 -6 21 -6 21 11 1 9 -11 14 -15 11 -8 -4
6 -1 15 5 19 8 4 9 3 5 -4 -4 -7 -2 -12 4 -12 6 0 8 -5 4 -12 -4 -7 -3 -8 4
-4 6 4 9 14 6 24 -4 12 -2 12 8 -3 9 -15 24 -20 55 -21 23 0 40 3 38 7 -3 3
-18 5 -35 4 -17 -1 -33 2 -37 8 -3 6 -1 7 5 3 7 -4 12 -1 12 6 0 10 2 10 9 -1
6 -9 10 -10 16 -2 5 9 10 9 20 1 8 -6 22 -10 32 -8 10 1 24 -1 30 -5 20 -13
54 -17 48 -6 -4 5 -10 7 -15 4 -4 -3 -14 3 -21 13 -12 15 -12 16 2 5 12 -10
18 -10 29 0 10 9 11 9 6 0 -9 -15 -1 -16 23 -4 13 7 18 6 18 -4 0 -8 -7 -11
-16 -7 -9 3 -13 2 -10 -2 4 -4 16 -8 27 -11 15 -2 19 1 16 10 -7 16 34 12 70
-7 l21 -11 -20 24 c-11 13 -13 18 -5 12 18 -16 34 -17 24 -1 -4 7 -3 8 5 4 6
-4 9 -11 7 -15 -3 -4 0 -8 7 -9 7 0 22 -3 35 -6 19 -4 21 -2 12 14 -8 15 -6
18 8 16 20 -3 23 -24 8 -46 -10 -13 -9 -13 6 -1 10 7 16 16 14 20 -2 3 6 11
18 17 17 8 23 7 23 -2 0 -7 -4 -11 -8 -8 -4 2 -10 1 -12 -3 -3 -5 17 -8 43 -8
27 0 46 3 43 7 -2 5 -8 6 -13 3 -4 -3 -11 2 -14 10 -4 13 -2 14 14 5 11 -6 25
-8 30 -5 5 3 12 0 16 -6 4 -7 3 -9 -3 -6 -5 3 -10 0 -10 -7 0 -11 4 -12 18 -3
10 6 16 14 13 18 -5 8 16 6 121 -16 14 -3 25 -1 25 4 0 6 -8 8 -18 6 -26 -5
-49 10 -28 18 8 3 18 2 22 -4 4 -6 12 -5 22 3 10 8 13 9 9 1 -4 -6 -3 -14 3
-18 5 -3 10 2 10 11 0 22 13 10 17 -17 2 -12 -1 -18 -7 -14 -5 3 -10 1 -10 -4
0 -19 19 -12 31 10 9 17 8 20 -3 13 -11 -6 -11 -5 0 8 7 9 21 15 30 13 9 -2
17 -4 17 -5 0 -7 36 -6 41 1 7 12 24 12 24 -1 0 -6 -3 -9 -7 -9 -5 1 -10 0
-13 -1 -14 -6 -59 -6 -55 0 2 4 -3 7 -11 7 -10 0 -11 -4 -4 -11 5 -5 34 -11
63 -12 28 0 47 1 40 3 -7 2 -9 11 -7 18 5 11 9 12 19 2 7 -7 10 -16 7 -22 -2
-5 1 -4 9 3 15 14 33 16 25 4 -6 -11 40 -9 50 1 12 11 44 8 44 -5 0 -6 3 -8 6
-5 4 4 1 13 -5 21 -9 11 -9 16 0 22 8 4 9 3 5 -5 -5 -8 0 -10 18 -7 15 3 25 0
23 -6 -1 -6 6 -12 16 -13 9 -2 15 1 11 6 -8 13 10 11 24 -3 7 -7 12 -8 12 -4
0 5 7 3 15 -4 10 -9 15 -9 15 -1 0 6 -4 11 -10 11 -15 0 -12 27 4 33 7 3 19 0
26 -6 10 -9 11 -7 6 13 -3 14 -3 19 0 13 3 -7 10 -13 15 -13 6 0 7 4 4 10 -3
6 1 7 9 4 9 -3 13 -11 9 -18 -3 -6 4 -2 16 9 18 15 20 21 9 30 -7 5 -12 20
-10 32 3 18 0 22 -15 17 -16 -6 -16 -5 1 8 19 15 19 16 -8 33 -15 10 -25 23
-22 30 2 7 -4 18 -14 25 -10 7 -15 20 -13 31 4 15 2 18 -13 12 -17 -6 -17 -5
-6 9 11 14 10 18 -5 26 -10 6 -19 20 -20 33 -1 12 -6 25 -11 28 -13 8 -11 41
2 41 6 0 4 5 -4 10 -8 5 -24 7 -35 3 -18 -5 -18 -5 -2 11 9 10 17 23 16 29 0
9 -2 8 -6 0 -2 -7 -9 -13 -14 -13 -6 0 -8 4 -4 9 3 5 -3 16 -13 23 -26 18 -27
20 -13 46 6 12 8 22 4 21 -13 -3 -43 12 -43 22 0 4 8 6 18 3 16 -5 16 -5 0 9
-10 8 -14 18 -10 23 4 4 -2 2 -12 -6 -18 -13 -19 -13 -14 1 4 9 2 21 -4 27 -8
8 -7 13 5 18 9 3 17 10 17 15 0 5 -12 2 -27 -8 -26 -17 -27 -17 -14 0 11 14
11 17 0 18 -8 0 -5 4 6 9 19 8 19 9 -1 9 -12 1 -25 8 -28 17 -3 8 -2 12 3 9 5
-3 13 0 17 6 4 8 3 9 -4 5 -7 -4 -12 -3 -12 3 0 6 -6 8 -13 5 -8 -3 -14 2 -14
10 0 8 7 12 16 9 13 -4 13 -3 2 5 -7 5 -10 15 -7 21 4 6 4 11 -1 10 -13 -3
-43 12 -43 23 0 5 5 6 10 3 6 -3 10 -1 10 4 0 6 -10 11 -22 12 -22 0 -22 1 -3
9 17 7 17 9 3 9 -10 1 -18 8 -18 16 0 7 -8 19 -17 24 -10 6 -12 11 -5 11 6 0
12 5 12 12 0 6 -3 8 -7 5 -10 -10 -52 65 -45 82 4 10 1 12 -8 6 -10 -6 -12 -2
-8 19 4 20 2 26 -8 22 -8 -3 -19 4 -25 16 -8 15 -8 18 0 14 18 -11 13 5 -6 21
-10 8 -12 12 -6 8 9 -4 11 -1 7 9 -3 9 -10 13 -15 10 -5 -3 -9 -2 -8 3 4 22
-2 43 -11 38 -6 -3 -7 1 -4 10 4 10 2 15 -7 13 -9 -2 -13 4 -11 18 2 15 -4 23
-19 27 -11 3 -18 10 -14 16 3 6 3 17 -2 24 -12 20 -12 37 0 37 7 1 0 8 -15 16
-16 8 -28 17 -28 20 0 3 5 2 10 -1 6 -4 3 9 -6 29 -10 19 -20 33 -24 31 -3 -2
-12 5 -19 17 -7 11 -8 17 -2 13 6 -3 11 -1 11 4 0 6 -5 11 -11 11 -5 0 -8 4
-4 9 3 5 1 13 -5 16 -8 5 -7 11 1 21 7 9 8 14 3 13 -5 -1 -20 3 -34 9 -19 8
-21 11 -7 11 15 1 13 5 -10 27 -15 14 -22 23 -15 19 17 -9 15 11 -4 29 -8 9
-12 21 -8 28 6 10 5 10 -7 1 -11 -9 -14 -7 -16 14 -1 20 1 23 9 12 8 -12 9
-12 5 1 -2 8 -12 13 -22 12 -17 -3 -17 -2 -4 14 8 11 9 15 2 10 -8 -4 -13 -2
-13 8 0 8 3 16 8 19 4 2 2 3 -5 1 -16 -4 -41 28 -35 45 3 9 0 11 -8 6 -8 -5
-11 -4 -6 3 3 5 3 12 -1 15 -5 2 -3 2 4 1 7 -2 15 1 18 7 4 5 3 9 -2 8 -21 -4
-33 2 -33 17 0 10 -6 14 -15 11 -11 -5 -12 -1 -5 18 7 19 6 23 -5 19 -10 -4
-12 0 -8 15 4 16 1 21 -13 21 -16 0 -17 2 -4 10 10 6 11 10 3 10 -7 0 -13 8
-13 18 0 10 -7 27 -16 38 -8 10 -12 13 -8 5 5 -10 3 -12 -5 -7 -9 6 -9 11 0
22 6 8 9 17 5 21 -3 3 -6 1 -6 -5 0 -7 -5 -12 -11 -12 -5 0 -8 4 -4 9 3 6 -3
15 -12 21 -16 10 -16 10 4 5 12 -3 25 -1 29 6 4 8 3 9 -4 5 -7 -4 -20 -2 -29
3 -11 6 -13 11 -5 11 7 0 10 5 7 10 -5 8 -12 7 -23 -2 -16 -12 -16 -11 0 7 14
17 14 22 2 33 -18 17 -29 15 -15 -2 9 -11 9 -16 0 -22 -7 -4 -9 -3 -5 4 3 6 2
13 -3 17 -6 3 -7 13 -4 22 5 12 3 14 -8 8 -8 -4 -11 -5 -7 0 4 4 2 15 -5 23
-10 13 -9 14 2 7 10 -5 12 -4 7 4 -4 6 -2 20 5 29 10 12 7 11 -10 -3 -14 -11
-21 -14 -17 -7 4 7 2 12 -5 12 -7 0 -5 8 7 21 14 15 15 20 4 17 -8 -2 -14 3
-12 10 1 8 -2 11 -8 7 -8 -5 -7 -11 1 -21 8 -10 8 -14 0 -14 -10 0 -15 13 -12
33 0 4 -4 7 -10 7 -5 0 -8 4 -5 9 3 4 -3 19 -15 32 -11 12 -18 28 -15 35 3 7
-2 15 -10 18 -8 3 -14 11 -14 18 0 9 3 8 10 -2 6 -9 10 -10 10 -3 0 6 -5 15
-10 18 -6 4 -8 10 -5 15 3 5 -4 14 -16 21 -19 10 -21 9 -15 -7z m-69 -64 c-3
-5 -11 -10 -16 -10 -6 0 -7 5 -4 10 3 6 11 10 16 10 6 0 7 -4 4 -10z m-156
-297 c0 -11 -3 -13 -6 -5 -2 6 -10 9 -15 6 -7 -4 -8 -2 -4 4 11 18 26 14 25
-5z m-13 -39 c2 -13 0 -13 -14 -2 -13 11 -15 11 -9 -4 6 -18 -8 -35 -17 -20
-6 11 24 56 32 47 3 -3 7 -12 8 -21z m-88 -149 c-3 -3 -9 2 -12 12 -6 14 -5
15 5 6 7 -7 10 -15 7 -18z m-17 -212 c13 -16 12 -17 -3 -4 -17 13 -22 21 -14
21 2 0 10 -8 17 -17z m72 -88 c-3 -9 -8 -14 -10 -11 -3 3 -2 9 2 15 9 16 15
13 8 -4z m227 -51 c0 -8 -19 -13 -24 -6 -3 5 1 9 9 9 8 0 15 -2 15 -3z m-129
-19 c11 6 11 5 2 -5 -12 -14 -33 -6 -33 13 0 8 3 7 9 -2 5 -8 14 -10 22 -6z
m652 -20 c-7 -21 -12 -19 -10 4 0 11 5 18 9 15 4 -3 5 -11 1 -19z m-413 -5
c-10 -6 -11 -10 -2 -10 6 0 12 -5 12 -11 0 -8 -5 -8 -15 1 -16 13 -11 30 8 30
7 0 6 -4 -3 -10z m-485 -60 c-3 -5 -12 -10 -18 -10 -7 0 -6 4 3 10 19 12 23
12 15 0z m-138 -13 c0 -8 -6 -14 -14 -14 -9 0 -10 4 -2 14 6 7 12 13 14 13 1
0 2 -6 2 -13z m1097 -33 c3 -8 2 -12 -4 -9 -6 3 -10 10 -10 16 0 14 7 11 14
-7z m-384 -30 c-1 -4 4 -10 11 -15 8 -4 11 -11 7 -14 -11 -11 -37 25 -31 42 6
16 17 4 13 -13z m104 -126 c-3 -4 -1 -8 4 -8 5 0 14 -12 21 -27 l11 -28 -21
28 c-11 15 -24 25 -28 22 -4 -2 -8 2 -8 9 0 7 6 13 13 13 7 0 11 -4 8 -9z
m-314 -113 c7 -9 8 -15 2 -15 -5 0 -12 7 -16 15 -3 8 -4 15 -2 15 2 0 9 -7 16
-15z m-437 -160 c4 3 5 2 2 -2 -17 -22 -53 -4 -39 19 5 8 11 6 19 -5 7 -9 15
-15 18 -12z m-95 -170 c-3 -3 -9 2 -12 12 -6 14 -5 15 5 6 7 -7 10 -15 7 -18z
m1282 -121 c0 -8 -4 -12 -10 -9 -5 3 -10 10 -10 16 0 5 5 9 10 9 6 0 10 -7 10
-16z m-590 -30 c0 -8 -19 -13 -24 -6 -3 5 1 9 9 9 8 0 15 -2 15 -3z m485 -73
c3 -5 2 -12 -3 -15 -5 -3 -9 1 -9 9 0 17 3 19 12 6z m-1555 -96 c0 -5 -5 -3
-10 5 -5 8 -10 20 -10 25 0 6 5 3 10 -5 5 -8 10 -19 10 -25z m-30 5 c0 -5 -2
-10 -4 -10 -3 0 -8 5 -11 10 -3 6 -1 10 4 10 6 0 11 -4 11 -10z m1384 2 c3 -5
-1 -9 -9 -9 -8 0 -12 4 -9 9 3 4 7 8 9 8 2 0 6 -4 9 -8z m-189 -11 c3 -5 2
-12 -3 -15 -5 -3 -9 1 -9 9 0 17 3 19 12 6z m203 -25 c-7 -8 -15 -12 -17 -11
-5 6 10 25 20 25 5 0 4 -6 -3 -14z m-1228 0 c0 -3 -4 -8 -10 -11 -5 -3 -10 -1
-10 4 0 6 5 11 10 11 6 0 10 -2 10 -4z m1711 -3 c-11 -5 -11 -7 0 -14 8 -5 9
-9 3 -9 -6 0 -16 6 -22 13 -8 10 -6 13 11 14 12 0 16 -1 8 -4z m-1616 -13 c3
-6 -1 -7 -9 -4 -18 7 -21 14 -7 14 6 0 13 -4 16 -10z m1762 -5 c0 -8 -4 -12
-9 -9 -5 3 -6 10 -3 15 9 13 12 11 12 -6z m-1680 -27 c-3 -8 -6 -5 -6 6 -1 11
2 17 5 13 3 -3 4 -12 1 -19z m1123 3 c0 -10 -26 -9 -36 2 -4 4 2 7 14 7 12 0
22 -4 22 -9z m10 -16 c-15 -18 -7 -19 23 -4 12 7 19 8 15 4 -4 -4 0 -15 9 -24
12 -11 18 -12 21 -3 3 9 7 8 19 -3 8 -8 18 -13 22 -11 4 3 7 -3 8 -12 1 -10
-10 -23 -24 -29 -20 -10 -23 -10 -13 2 7 9 8 15 0 20 -5 3 -10 1 -10 -4 0 -6
-5 -11 -11 -11 -8 0 -8 5 1 15 8 9 9 15 2 15 -6 0 -14 -5 -17 -10 -5 -8 -11
-8 -19 -1 -7 6 -17 7 -21 3 -5 -4 -5 -2 -1 5 3 6 2 14 -4 18 -5 3 -10 1 -10
-6 0 -19 -13 -1 -17 22 -2 12 1 18 7 14 6 -3 13 1 16 10 4 9 9 14 12 11 3 -3
-1 -12 -8 -21z m420 15 c-19 -13 -30 -13 -30 0 0 6 10 10 23 10 18 0 19 -2 7
-10z m8 -35 c-2 -25 -22 -40 -39 -30 -5 4 -6 -2 -3 -12 5 -15 4 -15 -4 -3 -12
16 4 44 19 34 8 -5 13 9 10 29 0 4 3 7 9 7 5 0 9 -11 8 -25z m24 -23 c-4 -11
-1 -13 9 -7 8 4 11 5 7 0 -4 -4 -3 -14 4 -22 9 -11 14 -11 32 4 15 13 17 14 8
2 -6 -9 -8 -20 -4 -24 4 -5 1 -5 -5 -1 -12 7 -17 -4 -14 -30 1 -6 -5 -11 -13
-11 -12 0 -13 5 -4 21 10 18 9 19 -4 8 -12 -10 -18 -10 -27 2 -8 10 -9 16 -1
21 5 3 10 12 10 18 0 8 -3 8 -9 -1 -5 -8 -17 -12 -27 -9 -17 4 -17 6 4 12 12
4 22 12 21 19 -1 6 -1 18 0 26 1 13 3 13 10 1 5 -8 7 -21 3 -29z m-307 -12
c-3 -5 -1 -20 5 -32 11 -22 10 -22 -4 -4 -18 23 -21 46 -5 46 5 0 7 -4 4 -10z
m-891 -16 c3 -8 2 -12 -4 -9 -6 3 -10 10 -10 16 0 14 7 11 14 -7z m931 -3 c3
-5 0 -13 -6 -17 -7 -4 -9 -3 -5 4 3 5 0 13 -6 15 -9 4 -10 6 -1 6 6 1 14 -3
18 -8z m15 -31 c-8 -5 -19 -10 -25 -10 -5 0 -3 5 5 10 8 5 20 10 25 10 6 0 3
-5 -5 -10z m343 -4 c-13 -23 -36 -46 -47 -46 -6 0 0 7 12 16 13 9 21 22 19 28
-3 7 1 13 9 13 7 0 10 -5 7 -11z m-309 -12 c3 -8 2 -12 -4 -9 -6 3 -10 10 -10
16 0 14 7 11 14 -7z m-1654 0 c0 -8 -19 -13 -24 -6 -3 5 1 9 9 9 8 0 15 -2 15
-3z m1630 -4 c0 -5 -5 -10 -11 -10 -5 0 -7 5 -4 10 3 6 8 10 11 10 2 0 4 -4 4
-10z m70 -4 c0 -2 -7 -7 -16 -10 -8 -3 -12 -2 -9 4 6 10 25 14 25 6z m265 -26
c-3 -5 -12 -10 -18 -10 -7 0 -6 4 3 10 19 12 23 12 15 0z m22 -25 c0 -8 -4
-12 -9 -9 -5 3 -6 10 -3 15 9 13 12 11 12 -6z m-2167 -30 c0 -5 -5 -3 -10 5
-5 8 -10 20 -10 25 0 6 5 3 10 -5 5 -8 10 -19 10 -25z m1515 -1 c8 -1 15 2 15
7 0 6 5 7 11 3 8 -5 8 -9 -1 -14 -8 -5 -7 -9 4 -13 10 -4 17 1 22 15 6 21 7
21 20 -3 7 -13 13 -20 14 -15 0 5 7 3 15 -4 8 -7 15 -9 15 -4 0 4 6 -1 14 -11
13 -18 13 -18 24 1 6 10 13 17 15 14 3 -3 -1 -14 -9 -24 -11 -16 -16 -17 -29
-6 -12 10 -18 10 -32 -1 -16 -13 -17 -12 -5 3 9 11 10 18 2 23 -5 3 -10 2 -10
-2 0 -5 -10 -14 -22 -22 -21 -13 -22 -13 -10 2 9 10 10 17 2 22 -5 3 -10 1
-10 -4 0 -15 -31 -13 -50 2 -8 7 -21 26 -28 42 -11 28 -11 28 3 11 8 -11 22
-21 30 -22z m470 27 c3 -5 2 -12 -3 -15 -5 -3 -9 1 -9 9 0 17 3 19 12 6z m65
-46 c0 -5 -5 -3 -10 5 -5 8 -10 20 -10 25 0 6 5 3 10 -5 5 -8 10 -19 10 -25z
m224 27 c2 -4 -4 -8 -14 -8 -10 0 -16 4 -14 8 3 4 9 8 14 8 5 0 11 -4 14 -8z
m-611 -29 c-3 -7 -6 -13 -8 -13 -2 0 -5 6 -8 13 -3 8 1 14 8 14 7 0 11 -6 8
-14z m77 -9 c0 -8 -19 -13 -24 -6 -3 5 1 9 9 9 8 0 15 -2 15 -3z m-26 -22 c3
-5 -1 -9 -9 -9 -8 0 -15 4 -15 9 0 4 4 8 9 8 6 0 12 -4 15 -8z m413 -17 c0 -8
-4 -12 -9 -9 -5 3 -6 10 -3 15 9 13 12 11 12 -6z m-340 -1 c-3 -3 -12 -4 -19
-1 -8 3 -5 6 6 6 11 1 17 -2 13 -5z m43 0 c0 -8 -19 -13 -24 -6 -3 5 1 9 9 9
8 0 15 -2 15 -3z m96 -20 c1 -9 0 -13 -4 -10 -3 4 -7 14 -8 22 -1 9 0 13 4 10
3 -4 7 -14 8 -22z m374 12 c0 -11 -19 -15 -25 -6 -3 5 1 10 9 10 9 0 16 -2 16
-4z m-320 -12 c0 -8 -19 -13 -24 -6 -3 5 1 9 9 9 8 0 15 -2 15 -3z m110 -4 c0
-5 -5 -10 -11 -10 -5 0 -7 5 -4 10 3 6 8 10 11 10 2 0 4 -4 4 -10z m-220 -20
c0 -5 -5 -10 -11 -10 -5 0 -7 5 -4 10 3 6 8 10 11 10 2 0 4 -4 4 -10z m135 0
c-6 -10 6 -14 35 -11 10 1 8 -3 -5 -11 -32 -20 -45 -18 -41 5 6 28 5 27 12 27
3 0 2 -4 -1 -10z m156 1 c4 -1 10 -9 13 -18 7 -17 6 -17 -10 -1 -16 15 -19 15
-29 2 -9 -13 -11 -13 -11 4 0 12 6 18 16 17 8 -2 18 -4 21 -4z m-2170 -24
c-13 -13 -26 -3 -16 12 3 6 11 8 17 5 6 -4 6 -10 -1 -17z m57 -2 c-3 -3 -9 2
-12 12 -6 14 -5 15 5 6 7 -7 10 -15 7 -18z m262 5 c6 -11 8 -20 6 -20 -3 0
-10 9 -16 20 -6 11 -8 20 -6 20 3 0 10 -9 16 -20z m-26 -11 c-3 -5 -10 -7 -15
-3 -5 3 -7 10 -3 15 3 5 10 7 15 3 5 -3 7 -10 3 -15z m306 15 c0 -8 -19 -13
-24 -6 -3 5 1 9 9 9 8 0 15 -2 15 -3z m801 -11 c13 -16 12 -17 -3 -4 -17 13
-22 21 -14 21 2 0 10 -8 17 -17z m569 7 c0 -5 -2 -10 -4 -10 -3 0 -8 5 -11 10
-3 6 -1 10 4 10 6 0 11 -4 11 -10z"/>
<path d="M2798 1351 c8 -4 13 -11 13 -15 -1 -3 1 -6 4 -6 3 0 8 0 11 0 4 0 1
7 -6 15 -7 8 -18 15 -24 15 -7 0 -6 -4 2 -9z"/>
<path d="M2862 1324 c10 -10 20 -15 24 -12 3 4 -5 12 -18 18 -22 12 -22 12 -6
-6z"/>
<path d="M3225 1291 c-6 -11 9 -23 19 -14 9 9 7 23 -3 23 -6 0 -12 -4 -16 -9z"/>
<path d="M2690 1151 c0 -9 30 -24 36 -18 2 1 -6 8 -16 15 -11 7 -20 8 -20 3z"/>
<path d="M2750 1151 c0 -6 4 -13 10 -16 6 -3 7 1 4 9 -7 18 -14 21 -14 7z"/>
<path d="M2355 3351 c-3 -5 -2 -12 3 -15 5 -3 9 1 9 9 0 17 -3 19 -12 6z"/>
<path d="M2119 3253 c-8 -9 -8 -13 0 -13 6 0 11 5 11 11 0 5 4 8 9 4 5 -3 12
-2 15 3 9 14 -23 10 -35 -5z"/>
<path d="M1980 2996 c0 -2 8 -10 18 -17 15 -13 16 -12 3 4 -13 16 -21 21 -21
13z"/>
<path d="M1878 2798 c10 -13 10 -17 0 -21 -10 -4 -9 -6 1 -6 10 -1 8 -8 -8
-25 -17 -18 -19 -24 -7 -22 8 1 19 5 23 10 14 13 10 56 -6 69 -14 10 -14 10
-3 -5z"/>
<path d="M2646 2758 c3 -5 10 -6 15 -3 13 9 11 12 -6 12 -8 0 -12 -4 -9 -9z"/>
<path d="M1935 2630 c-3 -5 -1 -10 4 -10 6 0 11 5 11 10 0 6 -2 10 -4 10 -3 0
-8 -4 -11 -10z"/>
<path d="M1976 2585 c-3 -8 -1 -15 4 -15 6 0 10 7 10 15 0 8 -2 15 -4 15 -2 0
-6 -7 -10 -15z"/>
<path d="M2273 2525 c0 -8 4 -12 9 -9 5 3 6 10 3 15 -9 13 -12 11 -12 -6z"/>
<path d="M2310 2525 c0 -16 16 -20 24 -6 3 5 -1 11 -9 15 -9 3 -15 0 -15 -9z"/>
<path d="M2037 2509 c7 -7 15 -10 18 -7 3 3 -2 9 -12 12 -14 6 -15 5 -6 -5z"/>
<path d="M2216 2497 c3 -10 9 -15 12 -12 3 3 0 11 -7 18 -10 9 -11 8 -5 -6z"/>
<path d="M2890 2285 c6 -8 9 -19 5 -25 -3 -5 -1 -10 4 -10 6 0 11 4 11 9 0 18
-12 41 -22 41 -6 0 -5 -6 2 -15z"/>
<path d="M2500 2250 c0 -5 7 -7 15 -4 8 4 15 8 15 10 0 2 -7 4 -15 4 -8 0 -15
-4 -15 -10z"/>
<path d="M1590 2196 c0 -2 7 -6 15 -10 8 -3 15 -1 15 4 0 6 -7 10 -15 10 -8 0
-15 -2 -15 -4z"/>
<path d="M2556 2143 c-6 -14 -5 -15 5 -6 7 7 10 15 7 18 -3 3 -9 -2 -12 -12z"/>
<path d="M2995 2079 c-4 -6 -5 -12 -2 -15 2 -3 7 2 10 11 7 17 1 20 -8 4z"/>
<path d="M1575 2039 c-4 -6 -5 -12 -2 -15 2 -3 7 2 10 11 7 17 1 20 -8 4z"/>
<path d="M2680 2024 c0 -17 27 -37 34 -25 4 5 2 12 -4 16 -5 3 -10 3 -10 -2 0
-4 -5 -1 -10 7 -5 8 -10 10 -10 4z"/>
<path d="M1650 2015 c0 -5 5 -17 10 -25 7 -10 10 -11 10 -2 0 10 4 10 20 0 12
-8 15 -15 8 -19 -6 -4 1 -6 15 -6 15 1 27 3 27 4 0 4 -60 33 -66 32 -4 0 -11
5 -15 13 -5 7 -9 9 -9 3z"/>
<path d="M3041 1978 c9 -16 29 -17 29 -2 0 3 -5 2 -12 -2 -7 -5 -9 -2 -6 8 4
8 0 15 -7 15 -10 0 -11 -5 -4 -19z"/>
<path d="M2740 1965 c-7 -8 -17 -12 -24 -8 -6 3 -7 2 -3 -2 10 -12 39 -16 32
-5 -3 5 1 10 7 13 7 2 10 7 7 11 -3 4 -12 0 -19 -9z"/>
<path d="M2790 1910 c0 -5 5 -10 11 -10 5 0 7 5 4 10 -3 6 -8 10 -11 10 -2 0
-4 -4 -4 -10z"/>
<path d="M2756 1888 c3 -5 10 -6 15 -3 13 9 11 12 -6 12 -8 0 -12 -4 -9 -9z"/>
<path d="M1473 1875 c0 -8 4 -12 9 -9 5 3 6 10 3 15 -9 13 -12 11 -12 -6z"/>
<path d="M1620 1851 c0 -7 -5 -9 -12 -5 -7 5 -8 3 -3 -5 5 -9 10 -10 18 -2 6
6 8 14 4 18 -4 3 -7 1 -7 -6z"/>
<path d="M1646 1828 c3 -5 10 -6 15 -3 13 9 11 12 -6 12 -8 0 -12 -4 -9 -9z"/>
<path d="M2830 1808 c0 -6 3 -8 7 -5 3 4 12 2 19 -4 8 -7 14 -7 19 1 3 5 5 10
3 11 -32 8 -48 7 -48 -3z"/>
<path d="M1973 1795 c0 -8 4 -12 9 -9 5 3 6 10 3 15 -9 13 -12 11 -12 -6z"/>
<path d="M2870 1780 c-9 -6 -10 -10 -3 -10 6 0 15 5 18 10 8 12 4 12 -15 0z"/>
<path d="M1798 1773 c6 -2 9 -10 6 -15 -4 -7 -2 -8 5 -4 13 9 5 26 -12 25 -9
0 -8 -2 1 -6z"/>
<path d="M1830 1751 c0 -6 4 -13 10 -16 6 -3 7 1 4 9 -7 18 -14 21 -14 7z"/>
<path d="M2096 1733 c-6 -14 -5 -15 5 -6 7 7 10 15 7 18 -3 3 -9 -2 -12 -12z"/>
<path d="M2190 1686 c0 -3 9 -10 20 -16 11 -6 20 -8 20 -6 0 3 -9 10 -20 16
-11 6 -20 8 -20 6z"/>
<path d="M2236 1677 c3 -10 9 -15 12 -12 3 3 0 11 -7 18 -10 9 -11 8 -5 -6z"/>
<path d="M2310 1634 c0 -8 5 -12 10 -9 6 4 8 11 5 16 -9 14 -15 11 -15 -7z"/>
<path d="M2339 1628 c-6 -27 -5 -39 4 -45 7 -3 9 -3 5 2 -4 4 -3 14 3 21 7 8
7 14 -1 19 -5 3 -10 5 -11 3z"/>
<path d="M1295 1610 c-3 -5 -1 -10 4 -10 6 0 11 5 11 10 0 6 -2 10 -4 10 -3 0
-8 -4 -11 -10z"/>
<path d="M2166 1611 c-3 -5 1 -14 9 -21 10 -9 15 -9 15 -1 0 6 -5 11 -11 11
-5 0 -7 5 -4 10 3 6 4 10 1 10 -3 0 -7 -4 -10 -9z"/>
<path d="M3016 1591 c-4 -6 5 -18 19 -27 13 -9 22 -21 18 -27 -3 -5 -1 -7 5
-4 5 4 9 15 8 24 -3 22 -42 48 -50 34z m44 -27 c0 -2 -9 0 -20 6 -11 6 -20 13
-20 16 0 2 9 0 20 -6 11 -6 20 -13 20 -16z"/>
<path d="M2426 1561 c-4 -5 -1 -13 5 -17 8 -4 9 -3 5 4 -4 7 -3 12 3 12 5 0
12 -7 14 -15 4 -12 5 -11 3 1 -1 20 -21 30 -30 15z"/>
<path d="M2481 1541 c-8 -5 -9 -11 -3 -15 5 -3 12 1 16 9 6 17 6 18 -13 6z"/>
<path d="M2344 1522 c4 -3 14 -7 22 -8 9 -1 13 0 10 4 -4 3 -14 7 -22 8 -9 1
-13 0 -10 -4z"/>
<path d="M3079 1503 c-7 -10 -10 -15 -5 -11 9 7 41 -19 41 -34 0 -4 5 -7 10
-5 12 2 8 20 -6 25 -5 2 -7 7 -4 12 3 4 -1 13 -9 19 -10 9 -17 7 -27 -6z"/>
<path d="M3285 1510 c-3 -5 -1 -10 4 -10 6 0 11 5 11 10 0 6 -2 10 -4 10 -3 0
-8 -4 -11 -10z"/>
<path d="M2390 1506 c0 -2 7 -7 16 -10 8 -3 12 -2 9 4 -6 10 -25 14 -25 6z"/>
<path d="M2566 1489 c-12 -15 -14 -24 -7 -30 6 -5 9 -6 6 -2 -3 3 2 15 12 25
9 10 14 20 12 23 -3 2 -13 -5 -23 -16z"/>
<path d="M2614 1458 c-4 -7 -3 -8 4 -4 7 4 12 3 12 -2 0 -6 8 -13 17 -16 15
-6 15 -4 -2 14 -21 23 -22 24 -31 8z"/>
<path d="M1350 1446 c0 -8 4 -18 10 -21 6 -4 7 1 4 12 -5 16 -4 16 10 -1 12
-15 16 -16 16 -5 0 12 2 12 11 -1 9 -13 10 -13 6 0 -2 8 -9 15 -14 15 -6 0
-15 3 -19 8 -12 12 -24 8 -24 -7z"/>
<path d="M1306 1428 c3 -5 10 -6 15 -3 13 9 11 12 -6 12 -8 0 -12 -4 -9 -9z"/>
<path d="M3054 1411 c15 -17 46 -19 46 -4 0 3 -7 3 -15 -1 -8 -3 -15 -1 -15 3
0 5 -8 12 -17 15 -15 6 -15 5 1 -13z"/>
<path d="M3133 1405 c0 -8 4 -12 9 -9 5 3 6 10 3 15 -9 13 -12 11 -12 -6z"/>
<path d="M1596 1392 c-3 -5 1 -9 9 -9 8 0 12 4 9 9 -3 4 -7 8 -9 8 -2 0 -6 -4
-9 -8z"/>
<path d="M1667 1369 c7 -7 15 -10 18 -7 3 3 -2 9 -12 12 -14 6 -15 5 -6 -5z"/>
<path d="M1776 1357 c3 -10 9 -15 12 -12 3 3 0 11 -7 18 -10 9 -11 8 -5 -6z"/>
<path d="M1893 1314 c0 -11 3 -11 14 -2 11 9 17 8 25 -3 8 -12 9 -12 5 1 -5
19 -44 22 -44 4z"/>
<path d="M3415 1250 c3 -5 8 -10 11 -10 2 0 4 5 4 10 0 6 -5 10 -11 10 -5 0
-7 -4 -4 -10z"/>
<path d="M2216 1228 c3 -5 10 -6 15 -3 13 9 11 12 -6 12 -8 0 -12 -4 -9 -9z"/>
<path d="M2330 1226 c0 -8 4 -17 9 -20 5 -4 7 3 4 14 -6 23 -13 26 -13 6z"/>
<path d="M3436 1212 c-3 -5 1 -9 9 -9 8 0 12 4 9 9 -3 4 -7 8 -9 8 -2 0 -6 -4
-9 -8z"/>
<path d="M2376 1197 c3 -10 9 -15 12 -12 3 3 0 11 -7 18 -10 9 -11 8 -5 -6z"/>
<path d="M2531 1184 c0 -11 3 -14 6 -6 3 7 2 16 -1 19 -3 4 -6 -2 -5 -13z"/>
<path d="M2630 1139 c0 -5 5 -7 10 -4 6 3 10 8 10 11 0 2 -4 4 -10 4 -5 0 -10
-5 -10 -11z"/>
<path d="M3386 1041 c-3 -5 1 -11 9 -14 9 -4 12 -1 8 9 -6 16 -10 17 -17 5z"/>
<path d="M3430 1041 c0 -5 5 -13 10 -16 6 -3 10 -2 10 4 0 5 -4 13 -10 16 -5
3 -10 2 -10 -4z"/>
<path d="M1530 1015 c0 -8 4 -15 10 -15 5 0 7 7 4 15 -4 8 -8 15 -10 15 -2 0
-4 -7 -4 -15z"/>
<path d="M1650 1021 c0 -6 -9 -8 -20 -6 -11 2 -20 0 -20 -6 0 -13 43 -5 48 9
2 7 1 12 -2 12 -3 0 -6 -4 -6 -9z"/>
<path d="M2026 1015 c4 -8 11 -15 16 -15 6 0 5 6 -2 15 -7 8 -14 15 -16 15 -2
0 -1 -7 2 -15z"/>
<path d="M1775 1009 c-4 -6 -5 -12 -2 -15 2 -3 7 2 10 11 7 17 1 20 -8 4z"/>
<path d="M2310 1013 c0 -6 8 -17 18 -24 16 -13 16 -13 2 6 -8 11 -16 22 -17
24 -2 2 -3 0 -3 -6z"/>
<path d="M2450 1010 c0 -5 5 -10 11 -10 5 0 7 5 4 10 -3 6 -8 10 -11 10 -2 0
-4 -4 -4 -10z"/>
<path d="M2807 999 c4 -13 8 -18 11 -10 2 7 -1 18 -6 23 -8 8 -9 4 -5 -13z"/>
<path d="M1913 995 c0 -8 4 -12 9 -9 5 3 6 10 3 15 -9 13 -12 11 -12 -6z"/>
<path d="M3273 995 c0 -8 4 -12 9 -9 5 3 6 10 3 15 -9 13 -12 11 -12 -6z"/>
<path d="M1147 989 c7 -7 15 -10 18 -7 3 3 -2 9 -12 12 -14 6 -15 5 -6 -5z"/>
<path d="M1334 992 c4 -3 14 -7 22 -8 9 -1 13 0 10 4 -4 3 -14 7 -22 8 -9 1
-13 0 -10 -4z"/>
<path d="M2525 990 c-3 -6 1 -7 9 -4 18 7 21 14 7 14 -6 0 -13 -4 -16 -10z"/>
</g>
</svg>
